<?xml version="1.0" encoding="UTF-8" standalone="no"?>
<svg
   xmlns:dc="http://purl.org/dc/elements/1.1/"
   xmlns:cc="http://creativecommons.org/ns#"
   xmlns:rdf="http://www.w3.org/1999/02/22-rdf-syntax-ns#"
   xmlns:svg="http://www.w3.org/2000/svg"
   xmlns="http://www.w3.org/2000/svg"
   xmlns:sodipodi="http://sodipodi.sourceforge.net/DTD/sodipodi-0.dtd"
   xmlns:inkscape="http://www.inkscape.org/namespaces/inkscape"
   width="793.70081"
   height="1122.5197"
   viewBox="0 0 210 297"
   version="1.1"
   id="svg8"
   sodipodi:docname="logo.svg"
   inkscape:version="1.0.2-2 (e86c870879, 2021-01-15)">
  <defs
     id="defs2">
    <pattern
       id="EMFhbasepattern"
       patternUnits="userSpaceOnUse"
       width="6"
       height="6"
       x="0"
       y="0" />
    <filter
       inkscape:collect="always"
       style="color-interpolation-filters:sRGB"
       id="filter987"
       x="-0.0014158291"
       width="1.0028317"
       y="-0.0033688092"
       height="1.0067376">
      <feGaussianBlur
         inkscape:collect="always"
         stdDeviation="0.12611368"
         id="feGaussianBlur989" />
    </filter>
    <filter
       inkscape:collect="always"
       style="color-interpolation-filters:sRGB"
       id="filter956"
       x="-0.033133104"
       width="1.0662662"
       y="-0.082148227"
       height="1.1642965">
      <feGaussianBlur
         inkscape:collect="always"
         stdDeviation="11.623092"
         id="feGaussianBlur958" />
    </filter>
  </defs>
  <sodipodi:namedview
     id="base"
     pagecolor="#ffffff"
     bordercolor="#666666"
     borderopacity="1.0"
     inkscape:pageopacity="0.0"
     inkscape:pageshadow="2"
     inkscape:zoom="0.35355339"
     inkscape:cx="149.38234"
     inkscape:cy="815.33734"
     inkscape:document-units="px"
     inkscape:current-layer="layer1"
     inkscape:document-rotation="0"
     showgrid="false"
     units="px"
     showborder="false"
     showguides="true"
     inkscape:snap-smooth-nodes="true"
     inkscape:window-width="1366"
     inkscape:window-height="697"
     inkscape:window-x="-8"
     inkscape:window-y="-8"
     inkscape:window-maximized="1"
     inkscape:object-nodes="false">
    <inkscape:grid
       type="xygrid"
       id="grid833" />
  </sodipodi:namedview>
  <metadata
     id="metadata5">
    <rdf:RDF>
      <cc:Work
         rdf:about="">
        <dc:format>image/svg+xml</dc:format>
        <dc:type
           rdf:resource="http://purl.org/dc/dcmitype/StillImage" />
        <dc:title />
      </cc:Work>
    </rdf:RDF>
  </metadata>
  <g
     inkscape:label="Layer 1"
     inkscape:groupmode="layer"
     id="layer1">
    <ellipse
       style="opacity:1;fill:none;stroke:#000000;stroke-width:0.529167;stroke-miterlimit:4;stroke-dasharray:none"
       id="path937"
       cx="149.54979"
       cy="137.05652"
       rx="45.065239"
       ry="44.591949"
       transform="rotate(90.626308)" />
    <ellipse
       style="opacity:1;fill:none;stroke:#000000;stroke-width:0.529167;stroke-miterlimit:4;stroke-dasharray:none"
       id="path939"
       cx="149.54979"
       cy="137.05652"
       rx="27.014248"
       ry="26.730528"
       transform="rotate(90.626308)" />
    <ellipse
       style="opacity:1;fill:none;stroke:#000000;stroke-width:0.529167;stroke-miterlimit:4;stroke-dasharray:none"
       id="path941"
       cx="149.54979"
       cy="137.05652"
       rx="18.086393"
       ry="17.896441"
       transform="rotate(90.626308)" />
    <ellipse
       style="opacity:1;fill:none;stroke:#000000;stroke-width:0.529167;stroke-miterlimit:4;stroke-dasharray:none"
       id="path945"
       cx="149.54979"
       cy="137.05652"
       rx="9.0431967"
       ry="8.9482193"
       transform="rotate(90.626308)" />
    <ellipse
       style="opacity:1;fill:none;stroke:#000000;stroke-width:0.529167;stroke-miterlimit:4;stroke-dasharray:none"
       id="path947"
       cx="149.54979"
       cy="137.05652"
       rx="72.194313"
       ry="71.339836"
       transform="rotate(90.626308)" />
    <text
       xml:space="preserve"
       style="font-style:normal;font-variant:normal;font-weight:bold;font-stretch:normal;font-size:16.9333px;line-height:1.25;font-family:Orkney;-inkscape-font-specification:'Orkney, Bold';font-variant-ligatures:normal;font-variant-caps:normal;font-variant-numeric:normal;font-variant-east-asian:normal;fill:#800080;stroke-width:0.264583"
       x="-202.80412"
       y="292.98087"
       id="text1432"><tspan
         sodipodi:role="line"
         id="tspan1430"
         x="-202.80412"
         y="292.98087"
         style="font-style:normal;font-variant:normal;font-weight:bold;font-stretch:normal;font-size:16.9333px;font-family:Orkney;-inkscape-font-specification:'Orkney, Bold';font-variant-ligatures:normal;font-variant-caps:normal;font-variant-numeric:normal;font-variant-east-asian:normal;fill:#800080;stroke-width:0.264583">Lejoyau10</tspan></text>
    <g
       aria-label="Hosnybusinesscenter&gt;com "
       id="text847"
       style="font-style:normal;font-variant:normal;font-weight:normal;font-stretch:normal;font-size:50.8px;line-height:125%;font-family:'Cream Cake';-inkscape-font-specification:'Cream Cake, Normal';font-variant-ligatures:normal;font-variant-caps:normal;font-variant-numeric:normal;font-variant-east-asian:normal;text-align:start;letter-spacing:0px;word-spacing:0px;text-anchor:start;fill:#ffffff;fill-opacity:1;stroke:#12add0;stroke-width:0.561116;stroke-miterlimit:4;stroke-dasharray:none;stroke-opacity:1"
       transform="matrix(0.66050211,0,0,1.3464974,25.141256,-44.842315)">
      <path
         d="m 2.6502421,285.28302 c 0.254,0 0.4572,-0.254 0.4572,-0.508 0,-1.524 1.5748,-6.8072 2.9464,-11.0236 0.7112,0 1.3207999,0 1.8795999,0.0508 h 0.0508 c 1.1176,0 1.9304,-1.3716 1.9304,-2.3368 0,-0.508 -0.2032,-0.8636 -0.7112,-0.8636 h -0.1016 c -0.5588,0 -1.27,0 -2.0319999,-0.0508 2.2859999,-6.9088 4.8259999,-13.97 5.3339999,-15.24 l 0.0508,-0.2032 c 0,-0.8636 -1.7272,-1.5748 -2.9972,-1.5748 -0.6604,0 -1.1684,0.2032 -1.3208,0.6096 -0.7112,1.7272 -3.4035999,9.2964 -5.5879999,16.4084 h -6.5531999 c 0.508,-2.6416 4.62279995,-13.1064 5.0291999,-14.7828 l 0.0508,-0.3556 c 0,-1.524 -3.0987999,-1.9304 -4.9783999,-1.9304 l -0.9652,0.0508 c -4.3179999,0.3556 -9.4488002,8.1788 -10.4648002,11.9888 -0.1524,0.508 -0.2032,0.9144 -0.2032,1.27 0,1.4732 0.9652,2.032 2.2352,2.032 0.7112,0 1.4732,-0.1524 2.2352,-0.4064 0.254,-0.1016 0.3556,-0.3048 0.3556,-0.508 0,-0.2032 -0.1524,-0.4064 -0.4064,-0.4572 -0.1016,-0.0508 -0.1524,-0.1524 -0.1524,-0.3556 0,-1.9304 5.3340002,-11.5316 7.6708002,-11.5316 l 0.3048,0.0508 c -0.762,2.1336 -3.3527999,8.636 -5.2831999,14.9352 h -2.1844003 c -0.762,0 -1.6764,1.4224 -1.6764,2.3368 0,0.4572 0.2032,0.8128 0.762,0.8128 l 2.1336003,-0.0508 c -1.2700003,4.2672 -2.3368003,8.3312 -2.3368003,9.906 l 0.0508,0.4064 c 0.254,1.1176 1.6256,1.3208 2.7940003,1.3208 h 0.508 c 0.3048,0 0.508,-0.254 0.508,-0.508 0,-1.6256 1.7272,-7.2136 2.9463999,-11.1252 l 6.6547999,0.0508 c -1.32079995,4.4196 -2.33679993,8.3312 -2.33679993,9.8552 l 0.0508,0.4064 c 0.254,1.1176 1.62559997,1.3208 2.84479993,1.3208 z"
         style="font-style:normal;font-variant:normal;font-weight:normal;font-stretch:normal;font-size:50.8px;font-family:'Cream Cake';-inkscape-font-specification:'Cream Cake, Normal';font-variant-ligatures:normal;font-variant-caps:normal;font-variant-numeric:normal;font-variant-east-asian:normal;fill:#ffffff;fill-opacity:1;stroke:#12add0;stroke-width:0.561116;stroke-miterlimit:4;stroke-dasharray:none;stroke-opacity:1"
         id="path860" />
      <path
         d="m 15.248607,281.26982 h -0.1524 c -0.762,-0.1016 -1.0668,-1.016 -1.0668,-2.286 0,-3.7084 2.6416,-10.6172 5.08,-10.9728 h 0.3048 c 0.6604,0 0.9144,0.508 1.0668,1.1176 -0.9652,0.3048 -1.8796,1.7272 -1.8796,3.2004 0,0.8636 0.3048,1.778 1.1176,2.3876 -0.508,1.5748 -2.4892,6.5532 -4.4704,6.5532 z m 14.0716,1.5748 c 1.524,0 3.302,-0.1016 4.826,-1.8288 0.8636,-0.9144 1.6256,-1.9812 2.3876,-3.0988 1.0668,-1.6764 2.032,-3.5052 2.9972,-5.4356 0.0508,-0.1016 0.0508,-0.2032 0.0508,-0.254 0,-0.3048 -0.254,-0.508 -0.508,-0.508 -0.2032,0 -0.3556,0.1016 -0.4572,0.3048 -1.016,2.1336 -1.9812,3.8608 -2.8448,5.1816 -0.8128,1.2192 -1.8796,2.6416 -2.54,3.302 0.4572,-0.7112 0.762,-1.6256 1.016,-2.7432 0.1016,-0.508 0.1524,-1.016 0.1524,-1.524 0,-2.1844 -0.7112,-4.318 -0.7112,-6.4516 0,-1.3716 0.3048,-2.7432 1.2192,-4.1148 0.1016,-0.1016 0.1016,-0.2032 0.1016,-0.3048 0,-0.254 -0.2032,-0.508 -0.508,-0.508 h -3.7592 c -0.4572,0 -1.3208,1.4732 -2.1336,3.0988 -1.1176,2.1844 -3.4036,6.604 -6.2992,6.604 0.3556,-1.2192 0.6604,-2.794 0.6604,-4.318 0,-2.3368 -0.7112,-4.572 -3.0988,-5.2324 -0.4572,-0.1016 -0.8636,-0.1524 -1.27,-0.1524 -4.7244,0 -8.229599,6.858 -8.229599,12.1412 0,3.2512 1.3208,5.842 4.521199,5.842 3.5052,0 5.9436,-4.1148 7.112,-7.3152 h 0.3048 c 3.5052,0 5.6896,-4.318 7.1628,-7.0104 -0.0508,0.3556 -0.0508,0.7112 -0.0508,1.0668 0,2.2352 0.6096,5.08 0.6096,7.5184 0,1.4224 -0.2032,2.6924 -0.9144,3.6068 -0.254,0.3556 -0.6096,0.6096 -0.9144,0.6096 -0.1016,0 -0.2032,-0.0508 -0.3048,-0.1016 -0.2032,-0.1524 -0.254,-0.4064 -0.254,-0.762 0,-1.1176 0.7112,-2.9464 1.4732,-3.6068 0.1016,-0.1016 0.1524,-0.2032 0.1524,-0.3556 0,-0.6604 -1.4224,-1.7272 -2.5908,-1.7272 -0.4064,0 -0.8128,0.1524 -1.0668,0.508 -0.762,1.016 -1.1684,2.2352 -1.1684,3.4036 0,2.1844 1.4224,4.1656 4.4196,4.1656 z"
         style="font-style:normal;font-variant:normal;font-weight:normal;font-stretch:normal;font-size:50.8px;font-family:'Cream Cake';-inkscape-font-specification:'Cream Cake, Normal';font-variant-ligatures:normal;font-variant-caps:normal;font-variant-numeric:normal;font-variant-east-asian:normal;fill:#ffffff;fill-opacity:1;stroke:#12add0;stroke-width:0.561116;stroke-miterlimit:4;stroke-dasharray:none;stroke-opacity:1"
         id="path862" />
      <path
         d="m 48.979745,282.84462 1.4224,-0.0508 c 1.9304,-0.1016 3.048,-2.286 6.603999,-10.3632 0.0508,-0.1016 0.0508,-0.1524 0.0508,-0.2032 0,-0.3048 -0.254,-0.508 -0.5588,-0.508 -0.1524,0 -0.3048,0.1016 -0.4064,0.3048 -3.555999,7.9756 -4.470399,9.652 -5.740399,9.7536 -0.254,0 -0.3048,-0.3048 -0.3048,-0.9144 0,-2.9464 2.4384,-9.7536 3.1496,-13.2588 l 0.0508,-0.6096 c 0,-1.3716 -1.0668,-2.1336 -2.3368,-2.1336 -2.1336,0 -4.2672,2.5908 -5.7912,4.572 -0.9144,1.1684 -1.778,2.4384 -2.54,3.556 0.1524,-0.4064 1.8288,-5.4356 2.2352,-6.4008 l 0.0508,-0.2032 c 0,-0.8128 -1.6764,-1.524 -2.8956,-1.524 -0.6096,0 -1.1176,0.2032 -1.27,0.6096 -1.27,3.302 -4.2672,13.3096 -4.2672,15.9004 0.0508,1.1684 1.6764,1.4224 2.8956,1.4224 h 0.254 c 0.4064,0 0.6604,-0.0508 0.6604,-0.508 0.0508,-1.1684 0.5588,-3.2004 1.1684,-5.4356 0.9144,-1.5748 4.3688,-7.2644 6.8072,-9.4488 0.1524,-0.1524 0.3556,-0.3048 0.508,-0.3048 0.1016,0 0.1524,0.1016 0.1524,0.254 -0.0508,0.6096 -2.8956,8.8392 -2.9972,12.5476 0,2.54 1.27,2.9464 3.0988,2.9464 z"
         style="font-style:normal;font-variant:normal;font-weight:normal;font-stretch:normal;font-size:50.8px;font-family:'Cream Cake';-inkscape-font-specification:'Cream Cake, Normal';font-variant-ligatures:normal;font-variant-caps:normal;font-variant-numeric:normal;font-variant-east-asian:normal;fill:#ffffff;fill-opacity:1;stroke:#12add0;stroke-width:0.561116;stroke-miterlimit:4;stroke-dasharray:none;stroke-opacity:1"
         id="path864" />
      <path
         d="m 57.361734,292.29342 c 4.2672,0 6.4008,-4.2672 7.7724,-7.7724 2.032,-0.8128 3.556,-2.1844 4.9276,-4.1656 1.3716,-1.9812 2.5908,-4.6228 4.064,-7.9248 0.0508,-0.1016 0.0508,-0.2032 0.0508,-0.254 0,-0.254 -0.254,-0.4572 -0.508,-0.4572 -0.1524,0 -0.3556,0.1016 -0.4572,0.3048 -1.4732,3.2512 -2.6416,5.842 -4.0132,7.7724 -1.016,1.524 -2.1336,2.6416 -3.556,3.4036 1.1684,-3.2004 2.3368,-7.0104 3.4036,-10.414 0.7112,-2.4384 1.3716,-4.6228 1.9812,-6.2484 l 0.0508,-0.2032 c 0,-0.8128 -1.5748,-1.4732 -2.794,-1.4732 -0.6604,0 -1.2192,0.2032 -1.3716,0.6604 -0.6604,1.8288 -1.27,3.6576 -1.778,5.4356 -1.3208,3.7084 -2.5908,6.2992 -3.6068,7.9756 -1.3208,2.1336 -2.286,2.794 -2.8448,2.8448 -0.254,0 -0.4064,-0.3048 -0.4064,-0.8128 0,-2.9972 3.7084,-13.208 4.1656,-14.3256 l 0.0508,-0.2032 c 0,-0.8128 -1.5748,-1.5748 -2.794,-1.5748 -0.6096,0 -1.0668,0.2032 -1.27,0.6096 -1.1176,2.3368 -3.8608,9.906 -3.8608,14.0208 0,0.8636 0.1016,1.5748 0.4064,2.0828 0.5588,1.0668 1.8796,1.2192 3.1496,1.2192 h 0.6604 c 1.4224,-0.0508 3.048,-2.286 4.2672,-4.5212 -0.6096,2.286 -0.9144,3.4036 -1.5748,5.1816 -4.6228,0.3048 -7.2644,1.3716 -7.7724,4.572 l -0.0508,0.8128 c 0,1.9304 1.1684,3.302 3.3528,3.4544 z m -1.1176,-2.2352 c -1.1176,0 -1.4732,-0.6604 -1.4732,-1.4732 0,-0.3048 0.0508,-0.6604 0.1524,-1.016 0.508,-1.778 1.9812,-2.794 6.1976,-3.048 -1.1684,2.8448 -2.9464,5.5372 -4.8768,5.5372 z"
         style="font-style:normal;font-variant:normal;font-weight:normal;font-stretch:normal;font-size:50.8px;font-family:'Cream Cake';-inkscape-font-specification:'Cream Cake, Normal';font-variant-ligatures:normal;font-variant-caps:normal;font-variant-numeric:normal;font-variant-east-asian:normal;fill:#ffffff;fill-opacity:1;stroke:#12add0;stroke-width:0.561116;stroke-miterlimit:4;stroke-dasharray:none;stroke-opacity:1"
         id="path866" />
      <path
         d="m 74.430532,282.84462 c 0.3048,0 0.508,-0.254 0.508,-0.508 0.0508,-2.0828 1.27,-5.9436 1.9812,-7.9248 0.4572,-1.524 2.9972,-6.5532 4.5212,-6.6548 h 0.1016 c 0.3556,0 0.4572,0.3048 0.5588,0.8128 l 0.1016,1.1684 c 0,1.7272 -0.508,3.9624 -1.016,5.3848 -1.3208,0.1524 -2.5908,0.4064 -3.5052,1.27 -0.8636,0.9144 -1.2192,1.9304 -1.2192,2.8448 0,1.5748 1.0668,2.8448 2.6924,2.8448 0.3048,0 0.6096,-0.0508 0.9144,-0.1016 2.3876,-0.6604 4.2164,-3.2512 5.2832,-6.1468 2.1336,-0.254 4.1148,-0.9652 5.2324,-3.3528 0.0508,-0.1016 0.0508,-0.2032 0.0508,-0.254 0,-0.2032 -0.1016,-0.4064 -0.254,-0.4572 -0.1016,-0.0508 -0.2032,-0.0508 -0.254,-0.0508 -0.1524,0 -0.3556,0.1016 -0.4572,0.3556 -0.762,1.7272 -2.3368,2.3876 -3.9624,2.6924 0.4064,-1.4224 0.6604,-2.9972 0.6604,-4.4196 v -0.4572 c -0.1524,-2.3876 -0.9652,-5.0292 -3.556,-5.0292 h -0.1524 c -1.27,0 -2.3368,0.8128 -3.2004,1.8796 1.2192,-3.4544 2.3368,-6.35 2.6924,-7.2644 l 0.0508,-0.2032 c 0,-0.8128 -1.7272,-1.524 -2.9972,-1.524 -0.6096,0 -1.1176,0.1524 -1.27,0.5588 -0.9144,1.9304 -3.4544,9.0932 -5.1816,14.986 -0.9652,3.2512 -1.6764,6.1468 -1.6764,7.5692 l 0.0508,0.6096 c 0.254,1.1684 1.5748,1.3716 2.794,1.3716 z m 3.6068,-3.2512 c -0.3048,0 -0.4572,-0.3048 -0.4572,-0.6604 0,-0.508 0.254,-1.1684 0.762,-1.6764 0.508,-0.5588 1.524,-0.8636 2.4384,-1.016 -0.508,1.1176 -1.016,1.8796 -1.524,2.4384 -0.508,0.6604 -0.9144,0.9144 -1.2192,0.9144 z"
         style="font-style:normal;font-variant:normal;font-weight:normal;font-stretch:normal;font-size:50.8px;font-family:'Cream Cake';-inkscape-font-specification:'Cream Cake, Normal';font-variant-ligatures:normal;font-variant-caps:normal;font-variant-numeric:normal;font-variant-east-asian:normal;fill:#ffffff;fill-opacity:1;stroke:#12add0;stroke-width:0.561116;stroke-miterlimit:4;stroke-dasharray:none;stroke-opacity:1"
         id="path868" />
      <path
         d="m 101.10047,282.79382 c 0.9652,-0.0508 2.0828,-1.2192 3.2004,-2.8448 1.524,-2.286 2.9972,-5.4356 3.9624,-7.5184 0.0508,-0.1016 0.0508,-0.1524 0.0508,-0.254 0,-0.1524 -0.1016,-0.3048 -0.254,-0.4064 -0.1016,-0.0508 -0.2032,-0.0508 -0.254,-0.0508 -0.1524,0 -0.3556,0.0508 -0.4572,0.3048 -0.8636,1.8796 -2.3368,4.9784 -3.7592,7.1628 -0.9652,1.4732 -1.8796,2.54 -2.54,2.5908 -0.3048,0 -0.3556,-0.4572 -0.3556,-1.1684 0.1016,-3.6576 3.4036,-12.3952 4.064,-14.0208 l 0.0508,-0.2032 c 0,-0.8128 -1.5748,-1.524 -2.794,-1.524 -0.6096,0 -1.1176,0.2032 -1.27,0.6096 -0.508,1.1176 -1.320797,3.2512 -2.031997,5.5372 -1.3716,3.7084 -2.54,6.2484 -3.6068,7.9248 -1.3208,2.1336 -2.286,2.8448 -2.8448,2.8448 -0.254,0 -0.3048,-0.4572 -0.3048,-1.1684 0.1016,-3.6576 3.4036,-12.3952 4.064,-14.0208 l 0.0508,-0.2032 c 0,-0.762 -1.5748,-1.524 -2.794,-1.524 -0.6096,0 -1.0668,0.2032 -1.27,0.6096 -0.762,1.6256 -2.5908,6.6548 -3.3528,10.2108 -0.3048,1.3716 -0.508,2.7432 -0.508,3.81 0,0.8636 0.1016,1.5748 0.4064,2.0828 0.5588,1.0668 1.8796,1.2192 3.1496,1.2192 h 0.6604 c 1.1684,-0.0508 2.4384,-1.524 3.5052,-3.2512 0.4572,-0.6604 0.8636,-1.3716 1.1684,-2.032 -0.1016,0.7112 -0.1524,1.3716 -0.1524,1.9812 0,0.8636 0.1016,1.5748 0.4064,2.0828 0.5588,1.0668 1.8796,1.2192 3.149597,1.2192 z"
         style="font-style:normal;font-variant:normal;font-weight:normal;font-stretch:normal;font-size:50.8px;font-family:'Cream Cake';-inkscape-font-specification:'Cream Cake, Normal';font-variant-ligatures:normal;font-variant-caps:normal;font-variant-numeric:normal;font-variant-east-asian:normal;fill:#ffffff;fill-opacity:1;stroke:#12add0;stroke-width:0.561116;stroke-miterlimit:4;stroke-dasharray:none;stroke-opacity:1"
         id="path870" />
      <path
         d="m 109.93961,282.79382 c 1.524,0 3.302,-0.1016 4.826,-1.778 0.8636,-0.9652 1.6256,-1.9812 2.3876,-3.1496 1.0668,-1.6256 2.0828,-3.5052 2.9972,-5.4356 l 0.0508,-0.2032 c 0,-0.2032 -0.1016,-0.3556 -0.254,-0.4572 -0.1016,-0.0508 -0.2032,-0.0508 -0.254,-0.0508 -0.2032,0 -0.3556,0.0508 -0.4572,0.254 -1.016,2.1844 -1.9812,3.8608 -2.8448,5.2324 -0.8128,1.2192 -1.8796,2.5908 -2.54,3.302 0.4572,-0.7112 0.762,-1.6256 1.016,-2.794 0.1016,-0.508 0.1524,-1.016 0.1524,-1.524 0,-2.1844 -0.7112,-4.318 -0.7112,-6.4516 0,-1.3208 0.3048,-2.6924 1.2192,-4.064 0.1016,-0.1016 0.1016,-0.254 0.1016,-0.3556 0,-0.254 -0.2032,-0.4572 -0.508,-0.4572 h -3.7592 c -0.9652,0 -3.6068,6.1976 -4.0132,7.112 -0.0508,0.1016 -0.0508,0.254 -0.0508,0.3556 0,0.254 0.1524,0.3048 0.254,0.3556 0.1016,0.0508 0.1524,0.0508 0.254,0.0508 0.1524,0 0.3556,-0.1016 0.4572,-0.254 l 1.8288,-3.9624 c -0.0508,0.3556 -0.0508,0.7112 -0.0508,1.0668 0,2.2352 0.6096,5.08 0.6096,7.5184 0,1.4224 -0.2032,2.6924 -0.9144,3.6068 -0.254,0.3048 -0.6096,0.5588 -0.9144,0.5588 -0.1016,0 -0.2032,0 -0.3048,-0.1016 -0.2032,-0.1524 -0.3048,-0.4064 -0.3048,-0.8128 0,-1.0668 0.7112,-2.8448 1.524,-3.5052 0.1524,-0.1016 0.2032,-0.254 0.2032,-0.3556 0,-0.7112 -1.4732,-1.778 -2.6416,-1.778 -0.4064,0 -0.8128,0.1524 -1.0668,0.508 -0.762,1.0668 -1.1684,2.286 -1.1684,3.4544 0,2.1844 1.4224,4.1148 4.4196,4.1148 z"
         style="font-style:normal;font-variant:normal;font-weight:normal;font-stretch:normal;font-size:50.8px;font-family:'Cream Cake';-inkscape-font-specification:'Cream Cake, Normal';font-variant-ligatures:normal;font-variant-caps:normal;font-variant-numeric:normal;font-variant-east-asian:normal;fill:#ffffff;fill-opacity:1;stroke:#12add0;stroke-width:0.561116;stroke-miterlimit:4;stroke-dasharray:none;stroke-opacity:1"
         id="path872" />
      <path
         d="m 121.97914,282.79382 c 2.3368,-0.1016 5.4356,-6.7564 7.0612,-10.3632 0.0508,-0.1016 0.0508,-0.1524 0.0508,-0.254 0,-0.2032 -0.1016,-0.3556 -0.254,-0.4064 l -0.254,-0.0508 c -0.2032,0 -0.3556,0.0508 -0.4572,0.3048 -1.4224,3.2004 -4.572,9.7028 -6.2484,9.7536 -0.3048,0 -0.4064,-0.3048 -0.4064,-0.8636 0,-3.0988 3.556,-13.208 3.9624,-14.3256 l 0.0508,-0.2032 c 0,-0.762 -1.5748,-1.524 -2.794,-1.524 -0.5588,0 -1.0668,0.2032 -1.27,0.6096 -0.762,1.8796 -2.4384,6.4008 -3.2512,10.2108 -0.254,1.3208 -0.4572,2.5908 -0.4572,3.6576 0,0.9144 0.1524,1.7272 0.4572,2.2352 0.5588,1.0668 1.8796,1.2192 3.1496,1.2192 z m 3.7084,-19.812 c 0.4064,0 0.762,-0.1016 0.8636,-0.3556 0.3556,-0.762 1.0668,-2.5908 1.3208,-3.048 0.1016,-0.1016 0.1016,-0.254 0.1016,-0.3556 0,-0.762 -1.524,-1.5748 -2.6924,-1.5748 -0.5588,0 -1.016,0.1524 -1.1684,0.6096 -0.3048,0.6604 -0.9144,2.6416 -0.9144,3.4544 0,0.6604 1.4732,1.27 2.4892,1.27 z"
         style="font-style:normal;font-variant:normal;font-weight:normal;font-stretch:normal;font-size:50.8px;font-family:'Cream Cake';-inkscape-font-specification:'Cream Cake, Normal';font-variant-ligatures:normal;font-variant-caps:normal;font-variant-numeric:normal;font-variant-east-asian:normal;fill:#ffffff;fill-opacity:1;stroke:#12add0;stroke-width:0.561116;stroke-miterlimit:4;stroke-dasharray:none;stroke-opacity:1"
         id="path874" />
      <path
         d="m 138.48911,282.84462 1.4224,-0.0508 c 1.9304,-0.1016 3.048,-2.286 6.604,-10.3632 0.0508,-0.1016 0.0508,-0.1524 0.0508,-0.2032 0,-0.3048 -0.254,-0.508 -0.5588,-0.508 -0.1524,0 -0.3048,0.1016 -0.4064,0.3048 -3.556,7.9756 -4.4704,9.652 -5.7404,9.7536 -0.254,0 -0.3048,-0.3048 -0.3048,-0.9144 0,-2.9464 2.4384,-9.7536 3.1496,-13.2588 l 0.0508,-0.6096 c 0,-1.3716 -1.0668,-2.1336 -2.3368,-2.1336 -2.1336,0 -4.2672,2.5908 -5.7912,4.572 -0.9144,1.1684 -1.778,2.4384 -2.54,3.556 0.1524,-0.4064 1.8288,-5.4356 2.2352,-6.4008 l 0.0508,-0.2032 c 0,-0.8128 -1.6764,-1.524 -2.8956,-1.524 -0.6096,0 -1.1176,0.2032 -1.27,0.6096 -1.27,3.302 -4.2672,13.3096 -4.2672,15.9004 0.0508,1.1684 1.6764,1.4224 2.8956,1.4224 h 0.254 c 0.4064,0 0.6604,-0.0508 0.6604,-0.508 0.0508,-1.1684 0.5588,-3.2004 1.1684,-5.4356 0.9144,-1.5748 4.3688,-7.2644 6.8072,-9.4488 0.1524,-0.1524 0.3556,-0.3048 0.508,-0.3048 0.1016,0 0.1524,0.1016 0.1524,0.254 -0.0508,0.6096 -2.8956,8.8392 -2.9972,12.5476 0,2.54 1.27,2.9464 3.0988,2.9464 z"
         style="font-style:normal;font-variant:normal;font-weight:normal;font-stretch:normal;font-size:50.8px;font-family:'Cream Cake';-inkscape-font-specification:'Cream Cake, Normal';font-variant-ligatures:normal;font-variant-caps:normal;font-variant-numeric:normal;font-variant-east-asian:normal;fill:#ffffff;fill-opacity:1;stroke:#12add0;stroke-width:0.561116;stroke-miterlimit:4;stroke-dasharray:none;stroke-opacity:1"
         id="path876" />
      <path
         d="m 150.0207,274.15782 c -0.254,0 -0.508,-0.0508 -0.7112,-0.2032 0.4064,-1.2192 1.0668,-2.54 1.8288,-3.7084 0.508,-0.7112 2.1336,-2.8448 3.302,-2.8448 0.1524,0 0.254,0 0.4064,0.1016 0.1524,0.1016 0.254,0.254 0.254,0.5588 0,1.6256 -2.8956,6.096 -5.08,6.096 z m 0.9652,8.636 c 0.508,0 1.1176,-0.0508 1.778,-0.254 2.032,-0.7112 4.826,-2.9972 8.22959,-10.1092 0.0508,-0.1016 0.0508,-0.2032 0.0508,-0.2032 0,-0.2032 -0.1016,-0.3556 -0.254,-0.4064 -0.1016,-0.0508 -0.2032,-0.1016 -0.3048,-0.1016 -0.1524,0 -0.3048,0.1016 -0.4064,0.3048 -3.20039,6.6548 -5.74039,8.8392 -7.51839,9.4996 -0.4064,0.1016 -0.8128,0.1524 -1.1176,0.1524 l -0.5588,-0.0508 c -1.6764,-0.3556 -2.2352,-2.3368 -2.2352,-4.2672 0,-0.6604 0.1016,-1.3208 0.2032,-1.9304 0.4064,0.3556 0.9144,0.508 1.4224,0.508 2.7432,0 6.4516,-4.4196 6.5532,-8.0264 v -0.1016 c 0,-1.9304 -1.5748,-2.8956 -3.5052,-2.9464 h -0.2032 c -3.7084,0 -6.4008,3.9116 -7.62,7.1628 -0.6096,1.6256 -0.9652,3.302 -0.9652,4.8768 0,3.2004 1.5748,5.7404 5.8928,5.8928 z"
         style="font-style:normal;font-variant:normal;font-weight:normal;font-stretch:normal;font-size:50.8px;font-family:'Cream Cake';-inkscape-font-specification:'Cream Cake, Normal';font-variant-ligatures:normal;font-variant-caps:normal;font-variant-numeric:normal;font-variant-east-asian:normal;fill:#ffffff;fill-opacity:1;stroke:#12add0;stroke-width:0.561116;stroke-miterlimit:4;stroke-dasharray:none;stroke-opacity:1"
         id="path878" />
      <path
         d="m 162.72069,282.79382 c 1.524,0 3.302,-0.1016 4.826,-1.778 0.8636,-0.9652 1.6256,-1.9812 2.3876,-3.1496 1.0668,-1.6256 2.0828,-3.5052 2.9972,-5.4356 l 0.0508,-0.2032 c 0,-0.2032 -0.1016,-0.3556 -0.254,-0.4572 -0.1016,-0.0508 -0.2032,-0.0508 -0.254,-0.0508 -0.2032,0 -0.3556,0.0508 -0.4572,0.254 -1.016,2.1844 -1.9812,3.8608 -2.8448,5.2324 -0.8128,1.2192 -1.8796,2.5908 -2.54,3.302 0.4572,-0.7112 0.762,-1.6256 1.016,-2.794 0.1016,-0.508 0.1524,-1.016 0.1524,-1.524 0,-2.1844 -0.7112,-4.318 -0.7112,-6.4516 0,-1.3208 0.3048,-2.6924 1.2192,-4.064 0.1016,-0.1016 0.1016,-0.254 0.1016,-0.3556 0,-0.254 -0.2032,-0.4572 -0.508,-0.4572 h -3.7592 c -0.9652,0 -3.6068,6.1976 -4.0132,7.112 -0.0508,0.1016 -0.0508,0.254 -0.0508,0.3556 0,0.254 0.1524,0.3048 0.254,0.3556 0.1016,0.0508 0.1524,0.0508 0.254,0.0508 0.1524,0 0.3556,-0.1016 0.4572,-0.254 l 1.8288,-3.9624 c -0.0508,0.3556 -0.0508,0.7112 -0.0508,1.0668 0,2.2352 0.6096,5.08 0.6096,7.5184 0,1.4224 -0.2032,2.6924 -0.9144,3.6068 -0.254,0.3048 -0.6096,0.5588 -0.9144,0.5588 -0.1016,0 -0.2032,0 -0.3048,-0.1016 -0.2032,-0.1524 -0.3048,-0.4064 -0.3048,-0.8128 0,-1.0668 0.7112,-2.8448 1.524,-3.5052 0.1524,-0.1016 0.2032,-0.254 0.2032,-0.3556 0,-0.7112 -1.4732,-1.778 -2.6416,-1.778 -0.4064,0 -0.8128,0.1524 -1.0668,0.508 -0.762,1.0668 -1.1684,2.286 -1.1684,3.4544 0,2.1844 1.4224,4.1148 4.4196,4.1148 z"
         style="font-style:normal;font-variant:normal;font-weight:normal;font-stretch:normal;font-size:50.8px;font-family:'Cream Cake';-inkscape-font-specification:'Cream Cake, Normal';font-variant-ligatures:normal;font-variant-caps:normal;font-variant-numeric:normal;font-variant-east-asian:normal;fill:#ffffff;fill-opacity:1;stroke:#12add0;stroke-width:0.561116;stroke-miterlimit:4;stroke-dasharray:none;stroke-opacity:1"
         id="path880" />
      <path
         d="m 174.65862,282.79382 c 1.524,0 3.302,-0.1016 4.826,-1.778 0.8636,-0.9652 1.6256,-1.9812 2.3876,-3.1496 1.0668,-1.6256 2.0828,-3.5052 2.9972,-5.4356 l 0.0508,-0.2032 c 0,-0.2032 -0.1016,-0.3556 -0.254,-0.4572 -0.1016,-0.0508 -0.2032,-0.0508 -0.254,-0.0508 -0.2032,0 -0.3556,0.0508 -0.4572,0.254 -1.016,2.1844 -1.9812,3.8608 -2.8448,5.2324 -0.8128,1.2192 -1.8796,2.5908 -2.54,3.302 0.4572,-0.7112 0.762,-1.6256 1.016,-2.794 0.1016,-0.508 0.1524,-1.016 0.1524,-1.524 0,-2.1844 -0.7112,-4.318 -0.7112,-6.4516 0,-1.3208 0.3048,-2.6924 1.2192,-4.064 0.1016,-0.1016 0.1016,-0.254 0.1016,-0.3556 0,-0.254 -0.2032,-0.4572 -0.508,-0.4572 h -3.7592 c -0.9652,0 -3.6068,6.1976 -4.0132,7.112 -0.0508,0.1016 -0.0508,0.254 -0.0508,0.3556 0,0.254 0.1524,0.3048 0.254,0.3556 0.1016,0.0508 0.1524,0.0508 0.254,0.0508 0.1524,0 0.3556,-0.1016 0.4572,-0.254 l 1.8288,-3.9624 c -0.0508,0.3556 -0.0508,0.7112 -0.0508,1.0668 0,2.2352 0.6096,5.08 0.6096,7.5184 0,1.4224 -0.2032,2.6924 -0.9144,3.6068 -0.254,0.3048 -0.6096,0.5588 -0.9144,0.5588 -0.1016,0 -0.2032,0 -0.3048,-0.1016 -0.2032,-0.1524 -0.3048,-0.4064 -0.3048,-0.8128 0,-1.0668 0.7112,-2.8448 1.524,-3.5052 0.1524,-0.1016 0.2032,-0.254 0.2032,-0.3556 0,-0.7112 -1.4732,-1.778 -2.6416,-1.778 -0.4064,0 -0.8128,0.1524 -1.0668,0.508 -0.762,1.0668 -1.1684,2.286 -1.1684,3.4544 0,2.1844 1.4224,4.1148 4.4196,4.1148 z"
         style="font-style:normal;font-variant:normal;font-weight:normal;font-stretch:normal;font-size:50.8px;font-family:'Cream Cake';-inkscape-font-specification:'Cream Cake, Normal';font-variant-ligatures:normal;font-variant-caps:normal;font-variant-numeric:normal;font-variant-east-asian:normal;fill:#ffffff;fill-opacity:1;stroke:#12add0;stroke-width:0.561116;stroke-miterlimit:4;stroke-dasharray:none;stroke-opacity:1"
         id="path882" />
      <path
         d="m 189.33976,282.79382 c 0.508,0 1.1176,-0.0508 1.8288,-0.3048 2.032,-0.7112 4.826,-2.9972 8.1788,-10.0584 0.0508,-0.1016 0.0508,-0.2032 0.0508,-0.2032 0,-0.2032 -0.1016,-0.3556 -0.254,-0.4572 0,0 -0.1016,-0.0508 -0.254,-0.0508 -0.1524,0 -0.3048,0.0508 -0.4064,0.3048 -3.2004,6.6548 -5.7404,8.8392 -7.5692,9.4996 -0.4064,0.1016 -0.762,0.1524 -1.1176,0.1524 -0.254,0 -0.508,-0.0508 -0.762,-0.1016 -1.4732,-0.508 -1.9812,-2.286 -1.9812,-4.064 0,-1.016 0.1524,-2.032 0.4064,-2.794 1.016,-3.81 3.9116,-7.366 5.334,-7.366 h 0.1524 c 0.2032,0.0508 0.3048,0.2032 0.3048,0.4572 0,0.8128 -1.016,2.54 -1.2192,2.8956 -0.0508,0.0508 -0.0508,0.1524 -0.0508,0.2032 0,0.2032 0.0508,0.3556 0.2032,0.4572 0.3048,0.2032 0.6604,0.3048 0.9652,0.3048 0.508,0 0.9652,-0.254 1.3716,-0.7112 0.5588,-0.6604 0.9144,-1.6764 0.9144,-2.6416 0,-1.4732 -0.762,-2.9464 -2.794,-3.3528 -0.3556,-0.0508 -0.762,-0.1016 -1.1176,-0.1016 -3.7084,0 -6.4008,3.8608 -7.6708,7.1628 -0.6096,1.6256 -0.9652,3.302 -0.9652,4.8768 0,3.2004 1.5748,5.7404 5.8928,5.8928 z"
         style="font-style:normal;font-variant:normal;font-weight:normal;font-stretch:normal;font-size:50.8px;font-family:'Cream Cake';-inkscape-font-specification:'Cream Cake, Normal';font-variant-ligatures:normal;font-variant-caps:normal;font-variant-numeric:normal;font-variant-east-asian:normal;fill:#ffffff;fill-opacity:1;stroke:#12add0;stroke-width:0.561116;stroke-miterlimit:4;stroke-dasharray:none;stroke-opacity:1"
         id="path884" />
      <path
         d="m 202.90332,274.15782 c -0.254,0 -0.508,-0.0508 -0.7112,-0.2032 0.4064,-1.2192 1.0668,-2.54 1.8288,-3.7084 0.508,-0.7112 2.1336,-2.8448 3.302,-2.8448 0.1524,0 0.254,0 0.4064,0.1016 0.1524,0.1016 0.254,0.254 0.254,0.5588 0,1.6256 -2.8956,6.096 -5.08,6.096 z m 0.9652,8.636 c 0.508,0 1.1176,-0.0508 1.778,-0.254 2.032,-0.7112 4.826,-2.9972 8.2296,-10.1092 0.0508,-0.1016 0.0508,-0.2032 0.0508,-0.2032 0,-0.2032 -0.1016,-0.3556 -0.254,-0.4064 -0.1016,-0.0508 -0.2032,-0.1016 -0.3048,-0.1016 -0.1524,0 -0.3048,0.1016 -0.4064,0.3048 -3.2004,6.6548 -5.7404,8.8392 -7.5184,9.4996 -0.4064,0.1016 -0.8128,0.1524 -1.1176,0.1524 l -0.5588,-0.0508 c -1.6764,-0.3556 -2.2352,-2.3368 -2.2352,-4.2672 0,-0.6604 0.1016,-1.3208 0.2032,-1.9304 0.4064,0.3556 0.9144,0.508 1.4224,0.508 2.7432,0 6.4516,-4.4196 6.5532,-8.0264 v -0.1016 c 0,-1.9304 -1.5748,-2.8956 -3.5052,-2.9464 h -0.2032 c -3.7084,0 -6.4008,3.9116 -7.62,7.1628 -0.6096,1.6256 -0.9652,3.302 -0.9652,4.8768 0,3.2004 1.5748,5.7404 5.8928,5.8928 z"
         style="font-style:normal;font-variant:normal;font-weight:normal;font-stretch:normal;font-size:50.8px;font-family:'Cream Cake';-inkscape-font-specification:'Cream Cake, Normal';font-variant-ligatures:normal;font-variant-caps:normal;font-variant-numeric:normal;font-variant-east-asian:normal;fill:#ffffff;fill-opacity:1;stroke:#12add0;stroke-width:0.561116;stroke-miterlimit:4;stroke-dasharray:none;stroke-opacity:1"
         id="path886" />
      <path
         d="m 223.32491,282.84462 1.4224,-0.0508 c 1.9304,-0.1016 3.048,-2.286 6.604,-10.3632 0.0508,-0.1016 0.0508,-0.1524 0.0508,-0.2032 0,-0.3048 -0.254,-0.508 -0.5588,-0.508 -0.1524,0 -0.3048,0.1016 -0.4064,0.3048 -3.556,7.9756 -4.4704,9.652 -5.7404,9.7536 -0.254,0 -0.3048,-0.3048 -0.3048,-0.9144 0,-2.9464 2.4384,-9.7536 3.1496,-13.2588 l 0.0508,-0.6096 c 0,-1.3716 -1.0668,-2.1336 -2.3368,-2.1336 -2.1336,0 -4.2672,2.5908 -5.7912,4.572 -0.9144,1.1684 -1.778,2.4384 -2.54,3.556 0.1524,-0.4064 1.8288,-5.4356 2.2352,-6.4008 l 0.0508,-0.2032 c 0,-0.8128 -1.6764,-1.524 -2.8956,-1.524 -0.6096,0 -1.1176,0.2032 -1.27,0.6096 -1.27,3.302 -4.2672,13.3096 -4.2672,15.9004 0.0508,1.1684 1.6764,1.4224 2.8956,1.4224 h 0.254 c 0.4064,0 0.6604,-0.0508 0.6604,-0.508 0.0508,-1.1684 0.5588,-3.2004 1.1684,-5.4356 0.9144,-1.5748 4.3688,-7.2644 6.8072,-9.4488 0.1524,-0.1524 0.3556,-0.3048 0.508,-0.3048 0.1016,0 0.1524,0.1016 0.1524,0.254 -0.0508,0.6096 -2.8956,8.8392 -2.9972,12.5476 0,2.54 1.27,2.9464 3.0988,2.9464 z"
         style="font-style:normal;font-variant:normal;font-weight:normal;font-stretch:normal;font-size:50.8px;font-family:'Cream Cake';-inkscape-font-specification:'Cream Cake, Normal';font-variant-ligatures:normal;font-variant-caps:normal;font-variant-numeric:normal;font-variant-east-asian:normal;fill:#ffffff;fill-opacity:1;stroke:#12add0;stroke-width:0.561116;stroke-miterlimit:4;stroke-dasharray:none;stroke-opacity:1"
         id="path888" />
      <path
         d="m 233.12931,282.79382 c 0.9652,-0.0508 1.9304,-1.1684 2.54,-1.8796 1.7272,-2.286 3.6068,-6.0452 4.6736,-8.4836 0.0508,-0.1016 0.0508,-0.2032 0.0508,-0.2032 0,-0.2032 -0.1016,-0.3556 -0.254,-0.4572 -0.1016,-0.0508 -0.2032,-0.0508 -0.254,-0.0508 -0.2032,0 -0.3556,0.0508 -0.4572,0.3048 -1.016,2.1844 -2.8448,5.9436 -4.4196,8.0772 -0.3556,0.4572 -1.3208,1.6764 -1.8796,1.6764 -0.1524,0 -0.2032,-0.1016 -0.2032,-0.4572 0,-0.9144 0.4572,-2.9972 0.5588,-3.302 1.016,-4.318 2.7432,-9.5504 4.318,-14.224 1.0668,0 2.032,0 2.8956,0.0508 0.3556,0 0.5588,-0.254 0.5588,-0.508 0,-0.254 -0.2032,-0.508 -0.508,-0.508 l -2.54,-0.0508 c 0.4572,-1.2192 0.9144,-2.3368 1.3716,-3.3528 l 0.0508,-0.1524 c 0,-0.762 -1.8288,-1.5748 -3.1496,-1.5748 -0.6096,0 -1.1176,0.1524 -1.27,0.6096 -0.508,1.1176 -1.1176,2.5908 -1.778,4.318 l -3.1496,-0.0508 c -0.3048,0 -0.508,0.254 -0.508,0.508 0,0.2032 0.2032,0.4572 0.508,0.508 0.8128,0 1.778,0 2.794,0.0508 -1.8796,5.08 -3.9624,11.684 -3.9624,15.6464 0,0.9144 0.1524,1.7272 0.4064,2.286 0.4572,1.0668 1.6256,1.2192 2.8448,1.2192 z"
         style="font-style:normal;font-variant:normal;font-weight:normal;font-stretch:normal;font-size:50.8px;font-family:'Cream Cake';-inkscape-font-specification:'Cream Cake, Normal';font-variant-ligatures:normal;font-variant-caps:normal;font-variant-numeric:normal;font-variant-east-asian:normal;fill:#ffffff;fill-opacity:1;stroke:#12add0;stroke-width:0.561116;stroke-miterlimit:4;stroke-dasharray:none;stroke-opacity:1"
         id="path890" />
      <path
         d="m 243.79723,274.15782 c -0.254,0 -0.508,-0.0508 -0.7112,-0.2032 0.4064,-1.2192 1.0668,-2.54 1.8288,-3.7084 0.508,-0.7112 2.1336,-2.8448 3.302,-2.8448 0.1524,0 0.254,0 0.4064,0.1016 0.1524,0.1016 0.254,0.254 0.254,0.5588 0,1.6256 -2.8956,6.096 -5.08,6.096 z m 0.9652,8.636 c 0.508,0 1.1176,-0.0508 1.778,-0.254 2.032,-0.7112 4.826,-2.9972 8.2296,-10.1092 0.0508,-0.1016 0.0508,-0.2032 0.0508,-0.2032 0,-0.2032 -0.1016,-0.3556 -0.254,-0.4064 -0.1016,-0.0508 -0.2032,-0.1016 -0.3048,-0.1016 -0.1524,0 -0.3048,0.1016 -0.4064,0.3048 -3.2004,6.6548 -5.7404,8.8392 -7.5184,9.4996 -0.4064,0.1016 -0.8128,0.1524 -1.1176,0.1524 l -0.5588,-0.0508 c -1.6764,-0.3556 -2.2352,-2.3368 -2.2352,-4.2672 0,-0.6604 0.1016,-1.3208 0.2032,-1.9304 0.4064,0.3556 0.9144,0.508 1.4224,0.508 2.7432,0 6.4516,-4.4196 6.5532,-8.0264 v -0.1016 c 0,-1.9304 -1.5748,-2.8956 -3.5052,-2.9464 h -0.2032 c -3.7084,0 -6.4008,3.9116 -7.62,7.1628 -0.6096,1.6256 -0.9652,3.302 -0.9652,4.8768 0,3.2004 1.5748,5.7404 5.8928,5.8928 z"
         style="font-style:normal;font-variant:normal;font-weight:normal;font-stretch:normal;font-size:50.8px;font-family:'Cream Cake';-inkscape-font-specification:'Cream Cake, Normal';font-variant-ligatures:normal;font-variant-caps:normal;font-variant-numeric:normal;font-variant-east-asian:normal;fill:#ffffff;fill-opacity:1;stroke:#12add0;stroke-width:0.561116;stroke-miterlimit:4;stroke-dasharray:none;stroke-opacity:1"
         id="path892" />
      <path
         d="m 261.12003,282.89542 c 0.2032,0 0.3048,-0.2032 0.3556,-0.4572 0,-0.254 -0.0508,-0.508 -0.254,-0.5588 -0.1524,0 -0.3048,-0.2032 -0.4064,-0.5588 l -0.1016,-0.8636 c 0,-2.54 1.5748,-7.0612 2.4384,-9.398 0.5588,-1.5748 0.9652,-2.6924 0.9652,-3.4544 l -0.0508,-0.3556 c -0.2032,-1.3208 -1.4732,-2.286 -2.794,-2.286 h -0.1524 c -1.016,0 -2.1336,0.4064 -3.4036,0.4572 0.1524,-0.3556 0.5588,-1.5748 0.762,-2.2352 v -0.1524 c 0,-0.4064 -0.5588,-0.6096 -1.1684,-0.6096 -0.5588,0 -1.1176,0.1524 -1.27,0.5588 -0.254,0.6604 -0.508,1.4732 -0.508,2.1336 0,0.5588 0.1524,1.0668 0.6096,1.4224 -0.8128,2.0828 -1.1684,2.8956 -2.3876,5.588 l -0.0508,0.2032 c 0,0.254 0.3048,0.508 0.5588,0.508 0.1524,0 0.3048,-0.1016 0.4064,-0.3048 1.1684,-2.54 1.5748,-3.556 2.3876,-5.5372 l 0.762,0.1016 c 0.8128,0 1.778,-0.254 2.4892,-0.3048 -0.508,1.4732 -3.048,8.89 -3.048,13.1064 0,1.6764 0.8128,2.794 2.032,2.9972 z"
         style="font-style:normal;font-variant:normal;font-weight:normal;font-stretch:normal;font-size:50.8px;font-family:'Cream Cake';-inkscape-font-specification:'Cream Cake, Normal';font-variant-ligatures:normal;font-variant-caps:normal;font-variant-numeric:normal;font-variant-east-asian:normal;fill:#ffffff;fill-opacity:1;stroke:#12add0;stroke-width:0.561116;stroke-miterlimit:4;stroke-dasharray:none;stroke-opacity:1"
         id="path894" />
      <path
         d="m 282.20191,282.79382 c 0.508,0 1.1176,-0.0508 1.8288,-0.3048 2.032,-0.7112 4.826,-2.9972 8.1788,-10.0584 0.0508,-0.1016 0.0508,-0.2032 0.0508,-0.2032 0,-0.2032 -0.1016,-0.3556 -0.254,-0.4572 0,0 -0.1016,-0.0508 -0.254,-0.0508 -0.1524,0 -0.3048,0.0508 -0.4064,0.3048 -3.2004,6.6548 -5.7404,8.8392 -7.5692,9.4996 -0.4064,0.1016 -0.762,0.1524 -1.1176,0.1524 -0.254,0 -0.508,-0.0508 -0.762,-0.1016 -1.4732,-0.508 -1.9812,-2.286 -1.9812,-4.064 0,-1.016 0.1524,-2.032 0.4064,-2.794 1.016,-3.81 3.9116,-7.366 5.334,-7.366 h 0.1524 c 0.2032,0.0508 0.3048,0.2032 0.3048,0.4572 0,0.8128 -1.016,2.54 -1.2192,2.8956 -0.0508,0.0508 -0.0508,0.1524 -0.0508,0.2032 0,0.2032 0.0508,0.3556 0.2032,0.4572 0.3048,0.2032 0.6604,0.3048 0.9652,0.3048 0.508,0 0.9652,-0.254 1.3716,-0.7112 0.5588,-0.6604 0.9144,-1.6764 0.9144,-2.6416 0,-1.4732 -0.762,-2.9464 -2.794,-3.3528 -0.3556,-0.0508 -0.762,-0.1016 -1.1176,-0.1016 -3.7084,0 -6.4008,3.8608 -7.6708,7.1628 -0.6096,1.6256 -0.9652,3.302 -0.9652,4.8768 0,3.2004 1.5748,5.7404 5.8928,5.8928 z"
         style="font-style:normal;font-variant:normal;font-weight:normal;font-stretch:normal;font-size:50.8px;font-family:'Cream Cake';-inkscape-font-specification:'Cream Cake, Normal';font-variant-ligatures:normal;font-variant-caps:normal;font-variant-numeric:normal;font-variant-east-asian:normal;fill:#ffffff;fill-opacity:1;stroke:#12add0;stroke-width:0.561116;stroke-miterlimit:4;stroke-dasharray:none;stroke-opacity:1"
         id="path896" />
      <path
         d="m 295.20669,281.21902 h -0.1524 c -0.762,-0.1016 -1.0668,-1.016 -1.0668,-2.286 0,-3.6576 2.6924,-10.5664 5.1308,-10.9728 h 0.254 c 0.6604,0 0.9652,0.508 1.1176,1.1684 -0.9652,0.254 -1.8796,1.7272 -1.8796,3.2004 0,0.8636 0.3048,1.778 1.1176,2.3876 -0.5588,1.5748 -2.54,6.5024 -4.5212,6.5024 z m -0.3556,1.5748 c 3.5052,0 5.9944,-4.064 7.112,-7.2644 h 0.4064 c 2.032,0 4.1656,-1.1176 5.1816,-3.048 0.0508,-0.1016 0.0508,-0.2032 0.0508,-0.3048 0,-0.1524 -0.0508,-0.3048 -0.2032,-0.3556 -0.1016,-0.0508 -0.2032,-0.1016 -0.3048,-0.1016 -0.1524,0 -0.3048,0.0508 -0.4064,0.254 -0.8636,1.6764 -2.6924,2.54 -4.3688,2.54 0.3556,-1.1684 0.6604,-2.7432 0.6604,-4.2164 0,-2.3876 -0.7112,-4.6736 -3.1496,-5.2832 -0.4572,-0.1016 -0.8636,-0.1524 -1.27,-0.1524 -4.7244,0 -8.2296,6.858 -8.2296,12.0904 0,3.2512 1.3208,5.842 4.5212,5.842 z"
         style="font-style:normal;font-variant:normal;font-weight:normal;font-stretch:normal;font-size:50.8px;font-family:'Cream Cake';-inkscape-font-specification:'Cream Cake, Normal';font-variant-ligatures:normal;font-variant-caps:normal;font-variant-numeric:normal;font-variant-east-asian:normal;fill:#ffffff;fill-opacity:1;stroke:#12add0;stroke-width:0.561116;stroke-miterlimit:4;stroke-dasharray:none;stroke-opacity:1"
         id="path898" />
      <path
         d="m 327.61698,282.89542 c 0.254,0 0.3048,-0.254 0.3048,-0.508 0,-0.1524 -0.1016,-0.508 -0.254,-0.508 -0.254,0 -0.3048,-0.3556 -0.3048,-0.9652 0,-2.9464 2.4384,-9.7028 3.1496,-13.208 l 0.0508,-0.6096 c 0,-1.3716 -1.1176,-2.1844 -2.3876,-2.1844 -0.6096,0 -1.27,0.2032 -1.8288,0.6096 -1.4224,0.9652 -2.8956,2.6416 -3.9624,4.0132 -0.9652,1.3208 -1.9304,2.6924 -2.6924,3.9116 0.5588,-2.1336 1.27,-4.7244 1.4732,-5.7404 0.0508,-0.2032 0.0508,-0.4572 0.0508,-0.6096 0,-1.3716 -1.0668,-2.1844 -2.3368,-2.1844 -0.6096,0 -1.27,0.2032 -1.8796,0.6096 -1.3716,0.9652 -2.8448,2.6416 -3.9116,4.0132 -0.9144,1.1684 -1.778,2.4384 -2.4892,3.6068 0.6604,-2.1844 1.3716,-4.318 2.1844,-6.4516 l 0.0508,-0.2032 c 0,-0.8128 -1.7272,-1.524 -2.9464,-1.524 -0.5588,0 -1.0668,0.1524 -1.1684,0.5588 -0.8636,2.286 -4.2672,12.8524 -4.2672,15.8496 v 0.0508 c 0,1.1684 1.6764,1.4732 2.9464,1.4732 h 0.3048 c 0.3048,-0.0508 0.5588,-0.1524 0.5588,-0.508 0.0508,-1.1684 0.508,-3.2004 1.1176,-5.4356 0.762,-1.27 2.54,-4.2164 4.5212,-6.8072 0.1524,-0.2032 1.524,-1.9812 2.3368,-2.6416 0.254,-0.254 0.4572,-0.3556 0.6096,-0.3556 0.1016,0 0.1016,0.1016 0.1016,0.2032 0,0.1016 0,0.2032 -0.0508,0.3556 -0.5588,1.9812 -2.8448,8.4328 -3.1496,11.8872 l -0.0508,0.7112 c 0,1.7272 0.8128,2.5908 2.6924,2.5908 h 0.5588 c 0.3048,-0.0508 0.6096,-0.1524 0.6096,-0.5588 v -0.1016 c 0,-0.8128 0.508,-2.8956 1.1176,-5.2324 0.7112,-1.27 2.54,-4.2672 4.5212,-6.858 0.762,-0.9652 1.524,-1.8796 2.286,-2.6416 0.1524,-0.1524 0.3556,-0.3048 0.508,-0.3048 0.1016,0 0.2032,0.1016 0.2032,0.3556 0,0.5588 -2.8448,8.5852 -3.048,11.9888 v 0.3556 c 0,3.0988 1.8796,2.9464 4.4704,2.9972 z"
         style="font-style:normal;font-variant:normal;font-weight:normal;font-stretch:normal;font-size:50.8px;font-family:'Cream Cake';-inkscape-font-specification:'Cream Cake, Normal';font-variant-ligatures:normal;font-variant-caps:normal;font-variant-numeric:normal;font-variant-east-asian:normal;fill:#ffffff;fill-opacity:1;stroke:#12add0;stroke-width:0.561116;stroke-miterlimit:4;stroke-dasharray:none;stroke-opacity:1"
         id="path900" />
    </g>
    <g
       id="g962"
       inkscape:export-filename="E:\web\Osseni\landingpage\assets\img\logo.png"
       inkscape:export-xdpi="96"
       inkscape:export-ydpi="96">
      <path
         id="path922"
         style="font-style:normal;font-variant:normal;font-weight:normal;font-stretch:normal;font-size:105.932px;line-height:1.25;font-family:Magneto;-inkscape-font-specification:'Magneto, Normal';font-variant-ligatures:normal;font-variant-caps:normal;font-variant-numeric:normal;font-variant-east-asian:normal;fill:#04b2d9;fill-opacity:1;stroke:#000000;stroke-width:10.00000015;stroke-miterlimit:4;stroke-dasharray:none;stroke-opacity:1;paint-order:fill markers stroke;stroke-linejoin:miter;stroke-linecap:square;filter:url(#filter956)"
         d="M 383.25391 453.51562 L 322.8457 625.35547 L 294.30469 625.35547 C 222.10202 625.35547 172.51146 645.75173 145.5332 686.54492 C 134.84617 702.7058 129.50195 718.7365 129.50195 734.63672 C 129.50195 754.96816 137.84319 770.21709 154.52539 780.38281 C 168.34034 788.85425 185.9995 793.08984 207.50391 793.08984 C 287.13537 792.9595 345.45901 747.47458 382.47266 656.63477 L 448.54883 656.63477 L 412.1875 758.29297 L 482.56445 758.29297 L 518.53711 656.63477 L 634.26953 656.63477 C 659.42317 656.63477 673.82342 646.20821 677.47266 625.35547 L 529.48438 625.35547 L 579.92188 483.23047 L 509.34766 483.23047 L 459.30078 625.35547 L 392.05078 625.35547 L 453.4375 453.51562 L 383.25391 453.51562 z M 648.26953 483.23047 L 618.16406 532.49609 L 846.89258 532.49609 C 877.52006 532.49609 892.83398 542.53078 892.83398 562.60156 C 892.83398 576.8075 886.57805 589.31936 874.06641 600.13672 C 866.63762 606.6532 854.90752 613.75586 838.87695 621.44531 C 827.27761 626.91918 820.17495 632.52331 817.56836 638.25781 C 817.3077 639.0398 817.17773 640.34336 817.17773 642.16797 C 817.17773 645.8172 819.78292 651.68322 824.99609 659.76367 C 830.2093 667.71378 832.81641 674.55456 832.81641 680.28906 C 832.81641 698.27457 821.1513 711.24325 797.82227 719.19336 C 782.05239 724.40654 762.76474 727.01367 739.95703 727.01367 L 729.98633 727.01367 L 790.00391 557.71484 L 719.625 557.71484 L 649.05273 758.29297 L 750.70898 758.29297 C 786.41935 758.29297 817.69895 753.33865 844.54688 743.43359 C 882.08182 729.48832 900.84961 707.98541 900.84961 678.92188 C 900.84961 664.84626 895.8303 649.14049 885.79492 631.80664 C 910.55755 619.68597 929.00043 608.60767 941.12109 598.57227 C 961.32221 581.89006 971.42188 563.97095 971.42188 544.8125 C 971.42187 521.74413 962.23391 505.25662 943.85742 495.35156 C 928.8695 487.27111 906.38795 483.23047 876.41211 483.23047 L 648.26953 483.23047 z M 306.0332 656.63477 L 311.70312 656.63477 C 304.01367 679.9638 293.3272 701.46866 279.64258 721.14844 C 261.26609 747.47504 242.69326 760.63867 223.92578 760.63867 C 208.93786 760.63867 201.44336 752.23244 201.44336 735.41992 C 201.44336 711.17859 213.23844 691.49714 236.82812 676.37891 C 257.28989 663.21559 280.35825 656.63477 306.0332 656.63477 z "
         transform="scale(0.26458333)" />
      <path
         id="path914"
         style="font-style:normal;font-variant:normal;font-weight:normal;font-stretch:normal;font-size:105.932px;line-height:1.25;font-family:Magneto;-inkscape-font-specification:'Magneto, Normal';font-variant-ligatures:normal;font-variant-caps:normal;font-variant-numeric:normal;font-variant-east-asian:normal;mix-blend-mode:normal;fill:#04b2d9;fill-opacity:1;stroke:#ffffff;stroke-width:2.64583;stroke-linecap:round;stroke-linejoin:miter;stroke-miterlimit:4;stroke-dasharray:none;stroke-opacity:1;paint-order:normal"
         d="M 101.40259,119.99267 85.419586,165.45863 H 77.86811 c -19.103623,0 -32.224458,5.39651 -39.362456,16.18971 -2.82761,4.2759 -4.241602,8.51735 -4.241602,12.72429 0,5.37936 2.206953,9.41397 6.620785,12.10365 3.655206,2.2414 8.327525,3.36207 14.017234,3.36207 21.069156,-0.0345 36.500619,-12.06904 46.293809,-36.10374 h 17.48266 l -9.62061,26.89707 h 18.62057 l 9.51777,-26.89707 h 30.62087 c 6.65523,0 10.4653,-2.75869 11.43083,-8.27598 h -39.15524 l 13.34493,-37.60391 h -18.67277 l -13.24157,37.60391 H 103.73009 L 119.972,119.99267 Z m 70.11871,7.86205 -7.9654,13.03486 h 60.51775 c 8.10352,0 12.15533,2.65502 12.15533,7.96541 0,3.75866 -1.65521,7.06908 -4.96559,9.93118 -1.96553,1.72415 -5.06912,3.6034 -9.31054,5.6379 -3.06899,1.44829 -4.94824,2.93105 -5.6379,4.4483 -0.069,0.2069 -0.10335,0.5518 -0.10335,1.03457 0,0.96552 0.68929,2.51757 2.06861,4.65552 1.37932,2.10347 2.06912,3.91343 2.06912,5.43068 0,4.75867 -3.08639,8.18996 -9.25886,10.29343 -4.17245,1.37932 -9.27564,2.06912 -15.31018,2.06912 h -2.63808 l 15.87965,-44.79364 h -18.62109 l -18.67224,53.06963 h 26.89654 c 9.44837,0 17.72443,-1.31084 24.82795,-3.93155 9.93112,-3.68969 14.89676,-9.379 14.89676,-17.06872 0,-3.72418 -1.32802,-7.87966 -3.98322,-12.46591 6.55178,-3.20693 11.43146,-6.13806 14.63839,-8.79326 5.34487,-4.41383 8.01708,-9.15493 8.01708,-14.22394 0,-6.1035 -2.43098,-10.46582 -7.2931,-13.08654 -3.96555,-2.13795 -9.91379,-3.20704 -17.8449,-3.20704 z m -90.550022,45.87989 h 1.500167 c -2.034501,6.17247 -4.861963,11.8623 -8.482685,17.06924 -4.862113,6.96558 -9.776174,10.44846 -14.741736,10.44846 -3.965554,0 -5.948474,-2.22415 -5.948474,-6.67246 0,-6.41385 3.120782,-11.62124 9.362218,-15.62127 5.413843,-3.48279 11.517347,-5.22397 18.31051,-5.22397 z" />
    </g>
    <rect
       style="opacity:0.634;fill:#ffffff;stroke:#000000;stroke-width:2.64583;stroke-linecap:square;stroke-linejoin:miter;stroke-miterlimit:4;stroke-dasharray:none;paint-order:normal"
       id="rect964"
       width="261.9375"
       height="261.9375"
       x="-296.34845"
       y="117.49168" />
  </g>
</svg>
